<svg width="70" height="70" viewBox="0 0 70 70" fill="none" xmlns="http://www.w3.org/2000/svg">
<circle cx="35" cy="35" r="35" fill="white"/>
<path d="M35.0004 10.6173C21.1948 10.6173 10 21.8096 10 35.6172C10 46.6628 17.1633 56.0338 27.0965 59.3397C28.3458 59.571 28.8051 58.7972 28.8051 58.1369C28.8051 57.541 28.7816 55.5714 28.7711 53.4824C21.8156 54.9949 20.348 50.5327 20.348 50.5327C19.2112 47.6433 17.5723 46.8747 17.5723 46.8747C15.3041 45.3231 17.7437 45.355 17.7437 45.355C20.2534 45.5313 21.5755 47.9315 21.5755 47.9315C23.8056 51.7532 27.4239 50.6483 28.8511 50.0095C29.0751 48.394 29.7228 47.2907 30.4383 46.6665C24.8851 46.0346 19.0479 43.8906 19.0479 34.3114C19.0479 31.582 20.0246 29.3518 21.624 27.6011C21.3645 26.9712 20.5081 24.4286 21.8658 20.9849C21.8658 20.9849 23.9657 20.3134 28.7428 23.5479C30.7367 22.9938 32.8754 22.716 35.0003 22.7064C37.1244 22.716 39.2647 22.9938 41.2628 23.5479C46.035 20.3133 48.1308 20.9849 48.1308 20.9849C49.4917 24.4286 48.6361 26.9712 48.3767 27.6011C49.9792 29.3519 50.9496 31.5821 50.9496 34.3114C50.9496 43.9137 45.1011 46.0277 39.5341 46.6466C40.4308 47.4225 41.2296 48.9438 41.2296 51.2761C41.2296 54.6212 41.2005 57.3134 41.2005 58.1368C41.2005 58.8023 41.6508 59.5819 42.9179 59.3363C52.8457 56.027 60 46.6593 60 35.6172C60 21.8096 48.8069 10.6173 35.0004 10.6173V10.6173Z" fill="black"/>
</svg>
