<svg width="70" height="70" viewBox="0 0 70 70" fill="none" xmlns="http://www.w3.org/2000/svg">
<circle cx="35" cy="35" r="35" fill="white"/>
<g clip-path="url(#clip0)">
<path d="M35 14.502C41.6797 14.502 42.4707 14.5312 45.0977 14.6484C47.5391 14.7559 48.8574 15.166 49.7363 15.5078C50.8984 15.957 51.7383 16.5039 52.6074 17.373C53.4863 18.252 54.0234 19.082 54.4824 20.2441C54.8242 21.123 55.2344 22.4512 55.3418 24.8828C55.459 27.5195 55.4883 28.3105 55.4883 34.9805C55.4883 41.6504 55.459 42.4512 55.3418 45.0781C55.2344 47.5195 54.8242 48.8379 54.4824 49.7168C54.0332 50.8789 53.4863 51.7188 52.6172 52.5879C51.7383 53.4668 50.9082 54.0039 49.7461 54.4629C48.8672 54.8047 47.5391 55.2148 45.1074 55.3223C42.4707 55.4395 41.6797 55.4688 35.0098 55.4688C28.3398 55.4688 27.5391 55.4395 24.9121 55.3223C22.4707 55.2148 21.1523 54.8047 20.2734 54.4629C19.1113 54.0137 18.2715 53.4668 17.4023 52.5977C16.5234 51.7188 15.9863 50.8887 15.5273 49.7266C15.1855 48.8477 14.7754 47.5195 14.668 45.0879C14.5508 42.4512 14.5215 41.6602 14.5215 34.9902C14.5215 28.3203 14.5508 27.5195 14.668 24.8926C14.7754 22.4512 15.1855 21.1328 15.5273 20.2539C15.9766 19.0918 16.5234 18.252 17.3926 17.3828C18.2715 16.5039 19.1016 15.9668 20.2637 15.5078C21.1426 15.166 22.4707 14.7559 24.9023 14.6484C27.5293 14.5312 28.3203 14.502 35 14.502V14.502ZM35 10C28.2129 10 27.3633 10.0293 24.6973 10.1465C22.041 10.2637 20.2148 10.6934 18.6328 11.3086C16.9824 11.9531 15.5859 12.8027 14.1992 14.1992C12.8027 15.5859 11.9531 16.9824 11.3086 18.623C10.6934 20.2148 10.2637 22.0312 10.1465 24.6875C10.0293 27.3633 10 28.2129 10 35C10 41.7871 10.0293 42.6367 10.1465 45.3027C10.2637 47.959 10.6934 49.7852 11.3086 51.3672C11.9531 53.0176 12.8027 54.4141 14.1992 55.8008C15.5859 57.1875 16.9824 58.0469 18.623 58.6816C20.2148 59.2969 22.0312 59.7266 24.6875 59.8437C27.3535 59.9609 28.2031 59.9902 34.9902 59.9902C41.7773 59.9902 42.627 59.9609 45.293 59.8437C47.9492 59.7266 49.7754 59.2969 51.3574 58.6816C52.998 58.0469 54.3945 57.1875 55.7812 55.8008C57.168 54.4141 58.0273 53.0176 58.6621 51.377C59.2773 49.7852 59.707 47.9688 59.8242 45.3125C59.9414 42.6465 59.9707 41.7969 59.9707 35.0098C59.9707 28.2227 59.9414 27.373 59.8242 24.707C59.707 22.0508 59.2773 20.2246 58.6621 18.6426C58.0469 16.9824 57.1973 15.5859 55.8008 14.1992C54.4141 12.8125 53.0176 11.9531 51.377 11.3184C49.7852 10.7031 47.9688 10.2734 45.3125 10.1563C42.6367 10.0293 41.7871 10 35 10V10Z" fill="url(#paint0_linear)"/>
<path d="M35 22.1582C27.9102 22.1582 22.1582 27.9102 22.1582 35C22.1582 42.0898 27.9102 47.8418 35 47.8418C42.0898 47.8418 47.8418 42.0898 47.8418 35C47.8418 27.9102 42.0898 22.1582 35 22.1582ZM35 43.3301C30.4004 43.3301 26.6699 39.5996 26.6699 35C26.6699 30.4004 30.4004 26.6699 35 26.6699C39.5996 26.6699 43.3301 30.4004 43.3301 35C43.3301 39.5996 39.5996 43.3301 35 43.3301Z" fill="url(#paint1_linear)"/>
<path d="M51.3477 21.6504C51.3477 23.3062 50.0054 24.6484 48.3496 24.6484C46.6938 24.6484 45.3516 23.3062 45.3516 21.6504C45.3516 19.9946 46.6938 18.6523 48.3496 18.6523C50.0054 18.6523 51.3477 19.9946 51.3477 21.6504Z" fill="url(#paint2_linear)"/>
</g>
<defs>
<linearGradient id="paint0_linear" x1="34.9854" y1="10" x2="34.9854" y2="59.9902" gradientUnits="userSpaceOnUse">
<stop stop-color="#D7811E"/>
<stop offset="1" stop-color="#A9146E" stop-opacity="0.67"/>
</linearGradient>
<linearGradient id="paint1_linear" x1="35" y1="22.1582" x2="35" y2="47.8418" gradientUnits="userSpaceOnUse">
<stop stop-color="#D7811E"/>
<stop offset="1" stop-color="#A9146E" stop-opacity="0.67"/>
</linearGradient>
<linearGradient id="paint2_linear" x1="48.3496" y1="18.6523" x2="48.3496" y2="24.6484" gradientUnits="userSpaceOnUse">
<stop stop-color="#D7811E"/>
<stop offset="1" stop-color="#A9146E" stop-opacity="0.67"/>
</linearGradient>
<clipPath id="clip0">
<rect width="50" height="50" fill="white" transform="translate(10 10)"/>
</clipPath>
</defs>
</svg>
