<svg width="70" height="70" viewBox="0 0 70 70" fill="none" xmlns="http://www.w3.org/2000/svg">
<circle cx="35" cy="35" r="35" fill="white"/>
<path d="M34 10C20.1914 10 9 21.1914 9 35C9 48.8086 20.1914 60 34 60C47.8086 60 59 48.8086 59 35C59 21.1914 47.8086 10 34 10ZM46.2852 27.1387L42.1836 46.4648C41.9004 47.8418 41.0703 48.1641 39.918 47.5293L33.668 42.9102L30.6699 45.8301C30.3184 46.1719 30.0449 46.4551 29.4199 46.4551C28.6094 46.4551 28.7461 46.1523 28.4727 45.3809L26.3438 38.3887L20.1621 36.4648C18.8242 36.0547 18.8145 35.1367 20.4648 34.4824L44.5469 25.1855C45.6406 24.6875 46.7051 25.4492 46.2852 27.1387V27.1387Z" fill="#008DB9"/>
</svg>
