<svg width="70" height="70" viewBox="0 0 70 70" fill="none" xmlns="http://www.w3.org/2000/svg">
<circle cx="35" cy="35" r="35" fill="white"/>
<g clip-path="url(#clip0)">
<path d="M60 21.0547C58.1641 21.875 56.1816 22.4219 54.1113 22.666C56.2305 21.3965 57.8516 19.3848 58.6231 16.9922C56.6406 18.1641 54.4434 19.0234 52.1094 19.4824C50.2344 17.4902 47.5684 16.25 44.6191 16.25C38.9551 16.25 34.3652 20.8398 34.3652 26.5039C34.3652 27.3047 34.4531 28.0859 34.6289 28.8379C26.1035 28.4082 18.5449 24.3262 13.4863 18.1152C12.6074 19.6289 12.0996 21.3965 12.0996 23.2715C12.0996 26.8262 13.9062 29.9707 16.6602 31.8066C14.9805 31.7578 13.3984 31.2891 12.0117 30.5273C12.0117 30.5664 12.0117 30.6152 12.0117 30.6543C12.0117 35.625 15.5469 39.7754 20.2441 40.7129C19.3848 40.9473 18.4766 41.0742 17.5391 41.0742C16.875 41.0742 16.2402 41.0059 15.6055 40.8887C16.9141 44.9609 20.7031 47.9297 25.1855 48.0176C21.6699 50.7715 17.2559 52.4121 12.4414 52.4121C11.6113 52.4121 10.8008 52.3633 9.99023 52.2656C14.541 55.1855 19.9316 56.875 25.7227 56.875C44.5898 56.875 54.9121 41.2402 54.9121 27.6855C54.9121 27.2363 54.9023 26.7969 54.8828 26.3574C56.8848 24.9219 58.623 23.1152 60 21.0547V21.0547Z" fill="#1F82DE"/>
</g>
<defs>
<clipPath id="clip0">
<rect width="50" height="50" fill="white" transform="translate(10 10)"/>
</clipPath>
</defs>
</svg>
