<svg width="70" height="70" viewBox="0 0 70 70" fill="none" xmlns="http://www.w3.org/2000/svg">
<circle cx="35" cy="35" r="35" fill="white"/>
<path d="M55.3125 10H14.6875C12.1094 10 10 12.1094 10 14.6875V55.3125C10 57.8906 12.1094 60 14.6875 60H55.3125C57.8906 60 60 57.8906 60 55.3125V14.6875C60 12.1094 57.8906 10 55.3125 10ZM50.498 45L45.9277 45.0684C45.9277 45.0684 44.9414 45.2637 43.6523 44.375C41.9434 43.2031 40.332 40.1465 39.0723 40.5469C37.8027 40.9473 37.8418 43.6914 37.8418 43.6914C37.8418 43.6914 37.8516 44.2773 37.5586 44.5898C37.2461 44.9316 36.6211 45 36.6211 45H34.5801C34.5801 45 30.0684 45.2734 26.0938 41.1328C21.7578 36.6211 17.9297 27.666 17.9297 27.666C17.9297 27.666 17.7051 27.0801 17.9492 26.7969C18.2227 26.4746 18.9551 26.4551 18.9551 26.4551L23.8477 26.4258C23.8477 26.4258 24.3066 26.5039 24.6387 26.748C24.9121 26.9434 25.0586 27.3242 25.0586 27.3242C25.0586 27.3242 25.8496 29.3262 26.8945 31.1328C28.9355 34.6582 29.8926 35.4297 30.5859 35.0586C31.5918 34.5117 31.2891 30.0684 31.2891 30.0684C31.2891 30.0684 31.3086 28.457 30.7813 27.7441C30.3711 27.1875 29.5996 27.0215 29.2676 26.9824C28.9941 26.9434 29.4434 26.3086 30.0293 26.0156C30.9082 25.5859 32.4609 25.5566 34.2969 25.5762C35.7227 25.5859 36.1426 25.6836 36.6992 25.8105C38.3887 26.2207 37.8125 27.793 37.8125 31.5625C37.8125 32.7734 37.5977 34.4727 38.4668 35.0293C38.8379 35.2734 39.7559 35.0684 42.0508 31.1719C43.1348 29.3262 43.9551 27.1582 43.9551 27.1582C43.9551 27.1582 44.1309 26.7676 44.4043 26.6016C44.6875 26.4355 45.0684 26.4844 45.0684 26.4844L50.2148 26.4551C50.2148 26.4551 51.7578 26.2695 52.0117 26.9727C52.2754 27.7051 51.4355 29.4141 49.3359 32.2168C45.8887 36.8164 45.498 36.3867 48.3691 39.043C51.1035 41.582 51.6699 42.8223 51.7676 42.9785C52.8809 44.8535 50.498 45 50.498 45Z" fill="#1A5A96"/>
</svg>
