<svg width="70" height="70" viewBox="0 0 70 70" fill="none" xmlns="http://www.w3.org/2000/svg">
<circle cx="35" cy="35" r="35" fill="white"/>
<g clip-path="url(#clip0)">
<path d="M59.5019 25C59.5019 25 59.0137 21.5527 57.5098 20.0391C55.6055 18.0469 53.4765 18.0371 52.5 17.9199C45.5078 17.4121 35.0098 17.4121 35.0098 17.4121H34.9902C34.9902 17.4121 24.4922 17.4121 17.5 17.9199C16.5234 18.0371 14.3945 18.0469 12.4902 20.0391C10.9863 21.5527 10.5078 25 10.5078 25C10.5078 25 10.0098 29.043 10.0098 33.0957V36.8848C10.0098 40.9277 10.5078 44.9805 10.5078 44.9805C10.5078 44.9805 10.9961 48.4277 12.4902 49.9414C14.3945 51.9336 16.8945 51.8652 18.0078 52.0801C22.0117 52.4609 35.0098 52.5781 35.0098 52.5781C35.0098 52.5781 45.5176 52.5586 52.5098 52.0606C53.4863 51.9434 55.6152 51.9336 57.5195 49.9414C59.0234 48.4277 59.5117 44.9805 59.5117 44.9805C59.5117 44.9805 60.0097 40.9375 60.0097 36.8848V33.0957C60 29.0527 59.5019 25 59.5019 25V25ZM29.834 41.4844V27.4316L43.3398 34.4824L29.834 41.4844V41.4844Z" fill="#C41515"/>
</g>
<defs>
<clipPath id="clip0">
<rect width="50" height="50" fill="white" transform="translate(10 10)"/>
</clipPath>
</defs>
</svg>
